<?xml version="1.0" standalone="no"?>
<!DOCTYPE svg PUBLIC "-//W3C//DTD SVG 20010904//EN"
 "http://www.w3.org/TR/2001/REC-SVG-20010904/DTD/svg10.dtd">
<svg version="1.0" xmlns="http://www.w3.org/2000/svg"
 width="1098.000000pt" height="1098.000000pt" viewBox="0 0 1098.000000 1098.000000"
 preserveAspectRatio="xMidYMid meet">
<metadata>
Created by potrace 1.14, written by Peter Selinger 2001-2017
</metadata>
<g transform="translate(0.000000,1098.000000) scale(0.100000,-0.100000)"
fill="#000000" stroke="none">
<path d="M5387 10734 c-1 -1 -78 -4 -172 -8 -93 -3 -188 -8 -210 -11 -22 -2
-69 -7 -105 -10 -36 -3 -76 -8 -90 -10 -14 -2 -47 -7 -75 -10 -56 -7 -66 -8
-220 -36 -60 -11 -123 -22 -140 -25 -156 -27 -668 -176 -770 -224 -11 -5 -67
-28 -125 -51 -473 -185 -988 -497 -1395 -845 -167 -142 -167 -143 -290 -263
-655 -640 -1125 -1423 -1374 -2291 -38 -134 -96 -379 -116 -495 -8 -49 -17
-97 -19 -105 -3 -8 -7 -40 -11 -71 -3 -31 -8 -67 -10 -79 -2 -12 -7 -48 -10
-79 -4 -31 -8 -66 -10 -79 -27 -168 -27 -927 0 -1082 3 -14 7 -47 10 -75 5
-53 18 -157 20 -165 1 -3 5 -27 9 -55 4 -27 14 -81 21 -120 8 -38 17 -86 20
-105 5 -27 45 -197 69 -295 29 -114 94 -318 148 -465 327 -880 874 -1640 1618
-2252 77 -63 204 -158 211 -158 4 0 9 -9 12 -20 3 -11 12 -20 19 -20 8 0 79
-43 158 -95 259 -173 568 -340 830 -450 74 -31 144 -61 155 -66 11 -4 47 -18
80 -29 33 -12 69 -25 80 -30 23 -10 222 -74 280 -90 184 -51 356 -91 540 -126
22 -4 47 -9 55 -10 8 -2 35 -6 60 -9 25 -3 59 -8 75 -10 17 -3 43 -7 59 -10
16 -2 59 -7 95 -11 36 -3 79 -7 96 -9 199 -25 855 -25 983 0 9 1 49 6 87 9 66
7 131 15 270 37 467 71 1072 266 1475 473 67 35 273 145 290 156 8 5 65 39
125 76 172 104 428 286 568 403 252 212 465 420 672 656 68 78 238 298 312
403 283 404 508 847 666 1312 32 93 113 365 122 409 2 9 13 59 25 111 12 52
24 104 26 115 9 40 54 311 60 360 3 28 7 61 9 75 4 28 10 95 21 215 17 175 9
760 -11 930 -2 17 -7 57 -10 90 -8 75 -13 115 -25 185 -5 30 -12 71 -15 90
-14 85 -19 113 -51 255 -164 740 -489 1434 -953 2039 -42 55 -83 106 -91 115
-8 9 -25 29 -38 45 -112 144 -390 429 -579 595 -230 201 -533 423 -761 556
-217 128 -461 250 -677 340 -172 72 -478 178 -610 211 -5 1 -55 14 -110 28
-55 15 -109 28 -120 30 -11 2 -56 12 -100 21 -44 9 -91 19 -105 21 -14 2 -41
7 -60 10 -19 4 -48 8 -65 10 -16 2 -37 6 -45 9 -8 2 -40 7 -70 10 -30 3 -64 7
-75 9 -11 2 -54 7 -95 11 -41 3 -89 8 -105 10 -57 8 -511 24 -518 19z m-1602
-669 c61 -34 141 -78 178 -99 37 -20 84 -46 105 -58 119 -67 259 -145 272
-151 8 -4 24 -13 35 -20 11 -7 58 -33 105 -58 47 -26 103 -57 125 -70 22 -12
54 -30 70 -39 108 -58 124 -71 115 -93 -5 -12 -40 -119 -79 -237 -38 -118 -96
-298 -129 -400 -179 -551 -314 -968 -321 -990 -8 -25 -38 -40 -986 -476 -44
-20 -116 -54 -160 -74 -44 -21 -129 -60 -190 -88 -60 -28 -155 -71 -210 -97
-55 -26 -143 -66 -195 -90 -52 -24 -126 -57 -165 -75 -67 -31 -70 -31 -98 -15
-15 9 -38 22 -50 28 -12 7 -104 60 -205 117 -101 58 -200 114 -220 125 -20 12
-145 83 -278 158 l-241 138 164 472 c91 260 182 522 203 582 21 61 53 152 71
204 l32 94 161 161 c89 89 184 182 212 206 28 25 66 59 85 75 348 306 817 600
1278 801 166 72 126 76 316 -31z m3860 -66 c228 -112 286 -144 457 -250 594
-370 1143 -903 1521 -1476 149 -226 392 -663 368 -663 -9 0 -62 23 -199 86
-41 19 -75 34 -78 34 -2 0 -27 11 -56 24 -29 13 -177 79 -328 146 -304 135
-319 141 -440 195 -47 21 -96 50 -110 65 -76 84 -638 669 -965 1005 -38 40
-158 164 -265 275 -107 112 -214 223 -237 248 -24 24 -43 49 -43 55 0 7 30 92
67 189 61 159 70 177 88 172 11 -3 110 -50 220 -105z m-489 -474 c152 -160
461 -481 764 -795 118 -122 253 -261 298 -309 46 -47 150 -156 232 -241 81
-85 151 -158 154 -161 5 -5 -292 -771 -334 -864 -5 -11 -55 -135 -110 -275
-56 -140 -107 -268 -114 -285 -8 -16 -28 -68 -46 -115 -17 -47 -35 -88 -38
-92 -4 -4 -43 -9 -87 -13 -44 -3 -100 -8 -125 -10 -25 -2 -79 -7 -120 -10
-191 -15 -200 -15 -380 -30 -30 -3 -91 -7 -135 -10 -89 -7 -153 -12 -235 -19
-30 -3 -91 -8 -135 -11 -44 -3 -100 -8 -125 -10 -25 -2 -83 -7 -130 -10 -47
-4 -101 -8 -120 -10 -19 -2 -75 -6 -125 -10 -49 -3 -108 -8 -130 -10 -22 -2
-80 -7 -130 -10 -49 -4 -106 -8 -125 -10 -108 -11 -130 -9 -148 16 -9 13 -31
40 -48 59 -17 19 -86 105 -154 190 -68 85 -129 160 -135 166 -5 7 -17 20 -25
31 -84 105 -136 170 -145 180 -5 6 -22 27 -36 45 -47 59 -179 222 -197 243 -9
11 -31 39 -48 61 -18 23 -41 52 -52 65 -12 13 -84 103 -162 199 -77 96 -146
182 -153 190 -7 8 -29 35 -49 60 l-37 45 20 60 c11 33 30 94 43 135 14 41 60
185 104 320 160 489 302 927 338 1040 20 63 39 118 43 122 5 5 68 12 231 23
264 18 406 28 550 40 36 2 103 7 150 10 47 3 110 8 140 10 30 2 93 7 140 10
47 3 108 8 135 10 28 2 91 7 140 10 50 3 117 8 150 10 60 5 113 9 295 21 52 3
96 7 98 9 14 13 52 -12 108 -70z m-5812 -2332 c94 -53 192 -109 219 -125 26
-15 50 -28 54 -28 3 0 14 -6 22 -14 9 -7 48 -30 86 -51 39 -21 99 -54 135 -75
36 -21 81 -47 100 -57 19 -11 76 -43 127 -72 l91 -52 7 -77 c4 -42 9 -86 11
-97 2 -11 6 -49 10 -84 3 -36 7 -68 9 -71 1 -3 6 -39 10 -80 4 -41 8 -82 10
-90 2 -8 6 -44 9 -80 4 -36 9 -76 11 -90 2 -14 7 -52 10 -85 3 -33 8 -71 10
-85 2 -14 6 -54 10 -90 4 -36 8 -76 10 -90 4 -23 13 -103 20 -160 4 -42 15
-133 20 -170 2 -19 7 -60 10 -90 4 -30 8 -66 10 -80 2 -14 6 -54 10 -90 3 -36
8 -72 10 -80 2 -8 7 -49 10 -90 4 -41 9 -83 11 -94 2 -10 6 -44 9 -75 3 -31 8
-69 10 -86 3 -16 7 -59 11 -95 3 -36 7 -67 9 -70 2 -3 -9 -23 -24 -45 -29 -43
-664 -913 -678 -930 -5 -5 -47 -63 -93 -127 l-84 -117 -26 16 c-29 18 -68 46
-460 323 -380 269 -358 253 -366 270 -14 35 -67 215 -99 335 -45 175 -72 307
-100 485 -21 140 -24 162 -31 237 -3 37 -8 79 -10 93 -22 136 -22 696 1 880 2
19 6 63 9 97 3 33 8 78 11 100 3 21 8 54 10 73 23 172 15 155 199 420 93 135
179 259 190 275 140 204 271 385 279 385 6 0 87 -43 181 -97z m7146 -1886
c148 -242 153 -251 196 -322 19 -33 54 -91 78 -130 201 -328 235 -389 227
-399 -8 -10 -65 -121 -393 -766 -72 -140 -174 -340 -228 -445 -54 -104 -166
-325 -250 -490 -84 -165 -153 -301 -154 -301 -1 -1 -28 -5 -61 -8 -33 -4 -80
-9 -105 -12 -47 -6 -99 -12 -164 -19 -22 -2 -60 -6 -85 -10 -25 -3 -66 -8 -91
-10 -25 -2 -61 -7 -80 -9 -19 -3 -64 -8 -100 -12 -36 -3 -72 -7 -80 -9 -8 -2
-44 -6 -80 -10 -36 -3 -83 -8 -105 -11 -22 -3 -60 -7 -85 -10 -25 -2 -79 -9
-120 -14 -41 -5 -102 -12 -135 -15 -33 -4 -71 -8 -85 -10 -14 -2 -56 -7 -95
-11 -38 -3 -72 -8 -75 -9 -3 -2 -46 -6 -95 -10 -50 -4 -92 -9 -95 -10 -3 -2
-37 -6 -75 -10 -39 -4 -81 -8 -95 -10 -134 -19 -137 -19 -152 12 -18 34 -354
626 -379 668 -11 17 -22 37 -26 45 -3 8 -37 68 -75 133 -37 65 -68 120 -68
123 0 2 -10 21 -23 42 -13 20 -37 62 -54 92 -33 59 -147 262 -180 320 -134
233 -263 464 -263 471 0 8 347 708 379 766 6 10 128 254 272 543 144 289 262
526 263 526 1 2 91 10 206 19 36 3 90 7 120 10 30 3 91 7 135 10 44 3 98 8
120 10 22 2 83 6 135 10 52 3 111 8 130 10 19 3 69 7 110 10 92 7 178 14 250
20 30 3 91 7 135 10 44 3 103 8 130 10 104 8 192 15 255 20 81 6 183 14 235
20 22 2 87 7 145 11 58 3 107 8 109 10 2 2 94 -146 205 -329 111 -183 253
-417 316 -520z m1934 -446 c-14 -110 -39 -262 -54 -331 -5 -25 -12 -56 -14
-70 -10 -58 -59 -253 -92 -363 -147 -500 -359 -952 -657 -1397 -209 -312 -509
-659 -778 -901 -15 -13 -42 -38 -60 -54 -68 -61 -246 -207 -319 -260 l-34 -25
-9 22 c-5 13 -33 109 -63 213 -29 105 -58 204 -63 220 -5 17 -35 118 -65 225
l-56 195 56 110 c31 61 123 243 206 405 83 162 185 363 228 445 101 196 383
749 479 941 l76 151 85 41 c47 23 139 67 205 98 66 31 167 79 225 106 104 50
198 94 315 148 141 65 342 161 365 173 14 8 28 13 31 11 3 -2 0 -48 -7 -103z
m-7704 -525 c19 -3 69 -10 110 -16 41 -6 84 -13 95 -15 11 -1 36 -6 55 -9 48
-8 229 -36 260 -41 14 -2 99 -15 190 -30 172 -27 190 -30 255 -40 22 -3 78
-12 125 -20 47 -8 105 -17 130 -21 25 -3 54 -8 65 -9 11 -2 65 -10 120 -19 55
-9 111 -18 125 -21 13 -2 42 -7 65 -10 91 -13 291 -46 307 -51 12 -4 247 -401
353 -599 6 -11 176 -311 378 -667 202 -356 367 -651 367 -656 0 -8 -74 -107
-90 -122 -5 -4 -109 -131 -509 -625 -35 -44 -93 -115 -128 -157 -69 -83 -56
-78 -161 -64 -20 3 -109 15 -197 26 -88 11 -176 23 -195 26 -19 2 -53 7 -75
10 -22 2 -125 15 -230 29 -104 14 -212 27 -240 30 -27 3 -79 10 -115 16 -36 6
-83 12 -104 14 -21 3 -55 7 -75 10 -20 2 -58 7 -86 11 -27 3 -59 7 -70 8 -88
12 -134 18 -155 21 -14 2 -65 9 -115 15 -49 6 -103 13 -120 15 -16 3 -46 7
-65 9 -19 2 -124 16 -234 30 -109 14 -202 26 -207 26 -4 0 -30 46 -58 102 -27
57 -136 279 -241 493 -106 215 -255 518 -332 675 -77 157 -155 316 -174 353
l-33 68 34 47 c19 26 76 104 127 174 51 70 100 137 108 149 8 12 20 27 25 33
6 6 21 27 35 46 84 118 544 748 556 761 12 13 23 15 52 9 20 -5 53 -11 72 -14z
m405 -3200 c22 -3 65 -8 95 -11 30 -3 62 -8 70 -10 8 -2 44 -7 80 -10 36 -3
72 -8 80 -10 13 -4 71 -11 150 -20 28 -3 112 -14 150 -20 14 -2 68 -9 120 -15
52 -6 120 -15 150 -20 30 -5 80 -12 110 -15 30 -3 66 -7 80 -10 14 -2 48 -7
75 -10 78 -9 138 -16 164 -20 33 -6 130 -18 226 -30 90 -11 195 -24 234 -30
12 -2 35 -12 50 -21 39 -26 512 -355 541 -377 25 -19 24 -19 -190 -13 -118 3
-233 8 -255 10 -22 2 -71 7 -110 10 -38 4 -117 14 -175 22 -58 8 -121 17 -140
20 -90 13 -342 68 -476 105 -148 40 -442 136 -519 169 -22 9 -76 32 -120 50
-89 36 -447 209 -455 219 -3 3 -22 14 -42 23 -53 25 -47 36 15 27 28 -4 70 -9
92 -13z"/>
</g>
</svg>
